<svg xmlns="http://www.w3.org/2000/svg" width="165" height="32.488" viewBox="0 0 165 32.488">
  <g id="Group_14" data-name="Group 14" transform="translate(-887 -470)">
    <g id="bookotrip-logo" transform="translate(882.245 469.244)">
      <g id="Group_1" data-name="Group 1">
        <path id="Path_1" data-name="Path 1" d="M93.128,32.349c0,.153,0,.28,0,.378s.007.173.011.23.012.107.016.139a1.141,1.141,0,0,1-.729-.2.793.793,0,0,1-.253-.659l.016-3.723H90.5a.8.8,0,0,1,.191-.555.719.719,0,0,1,.547-.208h3.583a.788.788,0,0,1-.191.555.711.711,0,0,1-.548.208h-.96Z" fill="#be1e2d"/>
        <path id="Path_2" data-name="Path 2" d="M95.129,31.244a2.051,2.051,0,0,1,.149-.845,1.331,1.331,0,0,1,.389-.51,1.3,1.3,0,0,1,.535-.25,2.629,2.629,0,0,1,.588-.065h.376a.73.73,0,0,1,.016.3.464.464,0,0,1-.1.225.407.407,0,0,1-.288.129,1.533,1.533,0,0,0-.258.06.532.532,0,0,0-.226.146.74.74,0,0,0-.167.3,1.674,1.674,0,0,0-.065.517V32.36c0,.151,0,.276,0,.371s.006.17.011.228a1.357,1.357,0,0,0,.018.139,1.169,1.169,0,0,1-.725-.2.783.783,0,0,1-.253-.658Z" fill="#be1e2d"/>
        <path id="Path_3" data-name="Path 3" d="M98,31.135a1.631,1.631,0,0,1,.47-.2,2.29,2.29,0,0,1,.544-.063,2.477,2.477,0,0,1,.761.114,1.465,1.465,0,0,0-.1-.424.656.656,0,0,0-.3-.345.776.776,0,0,0-.164-.058.97.97,0,0,0-.2-.019h-.085a1.064,1.064,0,0,0-.215.037,1.5,1.5,0,0,0-.215.062,1.91,1.91,0,0,1-.217.066.88.88,0,0,1-.207.025.51.51,0,0,1-.207-.044.46.46,0,0,1-.162-.177l-.015-.031.015-.021a1.83,1.83,0,0,1,.541-.4,1.8,1.8,0,0,1,.682-.175.3.3,0,0,1,.065-.009h.066a1.635,1.635,0,0,1,.645.128,1.585,1.585,0,0,1,.507.351,1.817,1.817,0,0,1,.455,1.253v.061a1.986,1.986,0,0,1-.408,1.3,1.612,1.612,0,0,1-1.108.589.394.394,0,0,1-.09.01h-.1a2.521,2.521,0,0,1-.337-.026,1.4,1.4,0,0,1-.345-.1,1.2,1.2,0,0,1-.323-.182.921.921,0,0,1-.247-.287,1.013,1.013,0,0,1-.153-.548V31.98a.924.924,0,0,1,.124-.5A.946.946,0,0,1,98,31.135Zm1.592.369c-.066-.012-.143-.021-.229-.031a1.975,1.975,0,0,0-.258-.016,1.716,1.716,0,0,0-.206.012.939.939,0,0,0-.186.042.564.564,0,0,0-.291.192.418.418,0,0,0-.063.1.544.544,0,0,0-.03.125.237.237,0,0,0-.008.071.687.687,0,0,0,.023.165.4.4,0,0,0,.091.166.474.474,0,0,0,.182.13.818.818,0,0,0,.318.053.412.412,0,0,0,.093-.008.655.655,0,0,0,.378-.124.441.441,0,0,0,.13-.11.954.954,0,0,0,.093-.141,1.033,1.033,0,0,0,.114-.3,1.435,1.435,0,0,0,.03-.286s-.009,0-.011,0-.008,0-.013,0-.042-.009-.067-.016A.906.906,0,0,1,99.589,31.5Z" fill="#be1e2d"/>
        <path id="Path_4" data-name="Path 4" d="M103.263,32.786a.789.789,0,0,1-.322.347.962.962,0,0,1-.345.108.836.836,0,0,1-.386-.061c-.042-.093-.1-.221-.165-.388s-.146-.354-.231-.558-.174-.423-.269-.647-.185-.442-.27-.651-.16-.393-.23-.563-.121-.3-.158-.393c-.02-.045-.041-.091-.062-.14s-.037-.088-.053-.128-.038-.1-.054-.139a1.454,1.454,0,0,1,.439-.039,1.016,1.016,0,0,1,.355.1.644.644,0,0,1,.29.335c.019.056.049.132.086.226s.08.2.125.313.088.229.138.353.1.245.141.368c.108.284.227.59.354.917.124-.327.24-.633.354-.917.047-.123.092-.246.146-.368s.1-.238.143-.353.081-.217.119-.313a2.426,2.426,0,0,1,.094-.226.594.594,0,0,1,.283-.335,1.028,1.028,0,0,1,.36-.1,1.462,1.462,0,0,1,.439.039c-.022.04-.042.085-.062.128a1.293,1.293,0,0,1-.055.136c-.021.05-.038.1-.055.143-.034.1-.083.225-.146.381l-.194.507c-.07.183-.144.37-.224.563s-.153.376-.225.552-.141.337-.205.477S103.3,32.711,103.263,32.786Z" fill="#be1e2d"/>
        <path id="Path_5" data-name="Path 5" d="M107.53,32.349a.559.559,0,0,1,.177.186l.023.022-.023.023a1.812,1.812,0,0,1-1.361.592,1.554,1.554,0,0,1-.664-.143,1.736,1.736,0,0,1-.552-.4,1.858,1.858,0,0,1-.364-.582,1.9,1.9,0,0,1-.135-.718,2.133,2.133,0,0,1,.119-.718,1.787,1.787,0,0,1,.342-.589,1.665,1.665,0,0,1,.541-.393,1.709,1.709,0,0,1,.713-.146,1.921,1.921,0,0,1,.473.067,1.545,1.545,0,0,1,.481.207,1.2,1.2,0,0,1,.369.371,1.021,1.021,0,0,1,.146.556.774.774,0,0,1-.162.509,1.152,1.152,0,0,1-.383.309,1.693,1.693,0,0,1-.476.155,2.637,2.637,0,0,1-.434.041,3.22,3.22,0,0,1-.5-.035c-.141-.021-.235-.039-.288-.05a1.222,1.222,0,0,0,.124.45.942.942,0,0,0,.206.272.638.638,0,0,0,.232.136.744.744,0,0,0,.206.033,1.565,1.565,0,0,0,.306-.03,2.61,2.61,0,0,0,.265-.067c.074-.026.149-.054.217-.077a.564.564,0,0,1,.2-.04A.36.36,0,0,1,107.53,32.349Zm-1.183-2.206a.924.924,0,0,0-.2.042.611.611,0,0,0-.228.128.835.835,0,0,0-.2.26,1.3,1.3,0,0,0-.132.432,2.257,2.257,0,0,0,.349.072,1.825,1.825,0,0,0,.455.013.91.91,0,0,0,.4-.131.424.424,0,0,0,.188-.36.377.377,0,0,0-.147-.332A.663.663,0,0,0,106.347,30.143Z" fill="#be1e2d"/>
        <path id="Path_6" data-name="Path 6" d="M109.969,32.4a1.024,1.024,0,0,1-.031.361.64.64,0,0,1-.155.265.5.5,0,0,1-.36.143.857.857,0,0,1-.415-.052.829.829,0,0,1-.3-.2.84.84,0,0,1-.177-.308,1.228,1.228,0,0,1-.058-.369V28.5c0-.154-.009-.277-.011-.373s-.007-.17-.014-.226-.009-.111-.014-.148a1.148,1.148,0,0,1,.73.2.78.78,0,0,1,.254.653V32.15a.392.392,0,0,0,.07.264.258.258,0,0,0,.159.1.346.346,0,0,0,.185-.018A.291.291,0,0,0,109.969,32.4Z" fill="#be1e2d"/>
        <path id="Path_7" data-name="Path 7" d="M113.268,32.349c0,.153,0,.28,0,.378s.007.173.013.23.01.107.015.139a1.133,1.133,0,0,1-.727-.2.79.79,0,0,1-.249-.653l.007-2.729a2.234,2.234,0,0,1,.112-.716,1.711,1.711,0,0,1,.333-.583,1.531,1.531,0,0,1,.523-.4,1.637,1.637,0,0,1,.7-.141.934.934,0,0,1,.391.074.583.583,0,0,1,.277.23.56.56,0,0,1,.061.249.57.57,0,0,1-.022.159l-.017.045-.039-.014a2.019,2.019,0,0,0-.249-.065,1.633,1.633,0,0,0-.318-.027,1.006,1.006,0,0,0-.153.016.711.711,0,0,0-.2.069.832.832,0,0,0-.2.149.794.794,0,0,0-.167.259,1.264,1.264,0,0,0-.071.252,1.951,1.951,0,0,0-.028.332v.084h1.04a.8.8,0,0,1-.193.556.714.714,0,0,1-.546.206h-.3Z" fill="#be1e2d"/>
        <path id="Path_8" data-name="Path 8" d="M117.327,30.035a1.744,1.744,0,0,1,.372.581,1.9,1.9,0,0,1,.135.718,2.063,2.063,0,0,1-.123.718,1.733,1.733,0,0,1-.347.582,1.524,1.524,0,0,1-.542.4,1.644,1.644,0,0,1-.71.148,1.525,1.525,0,0,1-.665-.148,1.769,1.769,0,0,1-.551-.4,1.861,1.861,0,0,1-.365-.582,1.938,1.938,0,0,1-.134-.718,2.133,2.133,0,0,1,.117-.718,1.681,1.681,0,0,1,.344-.581,1.585,1.585,0,0,1,.542-.4,1.713,1.713,0,0,1,.712-.146,1.582,1.582,0,0,1,.672.146A1.7,1.7,0,0,1,117.327,30.035Zm-1.215,2.483a.738.738,0,0,0,.234-.047.648.648,0,0,0,.257-.176,1.078,1.078,0,0,0,.207-.362,1.728,1.728,0,0,0,.084-.6,1.778,1.778,0,0,0-.084-.6.993.993,0,0,0-.207-.36.652.652,0,0,0-.257-.174.621.621,0,0,0-.469,0,.61.61,0,0,0-.256.174.953.953,0,0,0-.209.36,1.768,1.768,0,0,0-.085.6,1.729,1.729,0,0,0,.085.6,1.031,1.031,0,0,0,.209.362.607.607,0,0,0,.256.176A.739.739,0,0,0,116.112,32.518Z" fill="#be1e2d"/>
        <path id="Path_9" data-name="Path 9" d="M118.41,31.244a2.033,2.033,0,0,1,.15-.845,1.321,1.321,0,0,1,.389-.51,1.282,1.282,0,0,1,.534-.25,2.629,2.629,0,0,1,.588-.065h.376a.749.749,0,0,1,.017.3.457.457,0,0,1-.105.225.4.4,0,0,1-.287.129,1.5,1.5,0,0,0-.257.06.54.54,0,0,0-.228.146.8.8,0,0,0-.167.3,1.737,1.737,0,0,0-.065.517V32.36c0,.151,0,.276.007.371s.008.17.011.228.009.107.014.139a1.167,1.167,0,0,1-.723-.2.786.786,0,0,1-.253-.658v-1Z" fill="#be1e2d"/>
        <path id="Path_10" data-name="Path 10" d="M124.2,32.4a1.025,1.025,0,0,1-.03.361.663.663,0,0,1-.155.265.505.505,0,0,1-.359.143.861.861,0,0,1-.416-.052.776.776,0,0,1-.294-.2.819.819,0,0,1-.18-.308,1.2,1.2,0,0,1-.058-.369V28.5c0-.154-.009-.277-.013-.373s0-.17-.01-.226-.011-.111-.015-.148a1.151,1.151,0,0,1,.729.2.781.781,0,0,1,.256.653V32.15a.4.4,0,0,0,.067.264.29.29,0,0,0,.164.1.344.344,0,0,0,.184-.018A.281.281,0,0,0,124.2,32.4Z" fill="#be1e2d"/>
        <path id="Path_11" data-name="Path 11" d="M127.605,32.349a.572.572,0,0,1,.179.186l.022.022-.022.023a1.812,1.812,0,0,1-1.362.592,1.566,1.566,0,0,1-.666-.143,1.735,1.735,0,0,1-.549-.4,1.845,1.845,0,0,1-.366-.582,1.9,1.9,0,0,1-.135-.718,2.159,2.159,0,0,1,.119-.718,1.77,1.77,0,0,1,.342-.589,1.648,1.648,0,0,1,.542-.393,1.705,1.705,0,0,1,.713-.146,1.907,1.907,0,0,1,.472.067,1.56,1.56,0,0,1,.482.207,1.185,1.185,0,0,1,.368.371,1.021,1.021,0,0,1,.146.556.769.769,0,0,1-.161.509,1.153,1.153,0,0,1-.386.309,1.646,1.646,0,0,1-.472.155,2.665,2.665,0,0,1-.433.041,3.2,3.2,0,0,1-.5-.035c-.143-.021-.24-.039-.291-.05a1.305,1.305,0,0,0,.124.45.928.928,0,0,0,.208.272.639.639,0,0,0,.23.136.763.763,0,0,0,.208.033,1.617,1.617,0,0,0,.308-.03c.1-.02.182-.043.261-.067s.149-.054.22-.077a.551.551,0,0,1,.2-.04A.354.354,0,0,1,127.605,32.349Zm-1.182-2.206a.939.939,0,0,0-.2.042.612.612,0,0,0-.226.128.851.851,0,0,0-.2.26,1.32,1.32,0,0,0-.131.432,2.3,2.3,0,0,0,.35.072,1.82,1.82,0,0,0,.455.013.92.92,0,0,0,.4-.131.426.426,0,0,0,.19-.36.379.379,0,0,0-.15-.332A.656.656,0,0,0,126.423,30.143Z" fill="#be1e2d"/>
        <path id="Path_12" data-name="Path 12" d="M130.152,32.194a.252.252,0,0,0-.073-.217.924.924,0,0,0-.254-.17c-.112-.055-.239-.111-.389-.172a3.316,3.316,0,0,1-.47-.248,1.1,1.1,0,0,1-.3-.258,1,1,0,0,1-.217-.677.972.972,0,0,1,.083-.355.871.871,0,0,1,.2-.285,1.018,1.018,0,0,1,.272-.188,1.165,1.165,0,0,1,.3-.1,1.413,1.413,0,0,1,.283-.031h.093a1.8,1.8,0,0,1,.747.2,1.819,1.819,0,0,1,.576.466l.024.024-.024.031a.6.6,0,0,1-.17.161.357.357,0,0,1-.193.055.521.521,0,0,1-.206-.043c-.067-.03-.141-.058-.217-.089-.1-.042-.188-.077-.272-.1a.841.841,0,0,0-.257-.04.4.4,0,0,0-.254.071.29.29,0,0,0-.1.175.265.265,0,0,0,.094.242,1.117,1.117,0,0,0,.314.179c.157.067.326.142.51.222a1.966,1.966,0,0,1,.474.292,1.116,1.116,0,0,1,.317.414.916.916,0,0,1,.021.59,1.109,1.109,0,0,1-.13.287.962.962,0,0,1-.259.272,1.486,1.486,0,0,1-.4.2,1.671,1.671,0,0,1-.552.082.573.573,0,0,1-.1-.009,1.8,1.8,0,0,1-.725-.192,1.723,1.723,0,0,1-.6-.47l-.023-.023.023-.029a.423.423,0,0,1,.085-.1c.031-.027.059-.051.083-.07a.4.4,0,0,1,.185-.047.567.567,0,0,1,.208.041c.068.029.14.059.216.089a1.271,1.271,0,0,0,.242.094,1.773,1.773,0,0,0,.3.053.591.591,0,0,0,.4-.1A.382.382,0,0,0,130.152,32.194Z" fill="#be1e2d"/>
        <path id="Path_13" data-name="Path 13" d="M133.358,32.194a.252.252,0,0,0-.073-.217.963.963,0,0,0-.255-.17c-.108-.055-.239-.111-.387-.172a3.262,3.262,0,0,1-.47-.248,1.056,1.056,0,0,1-.3-.258.974.974,0,0,1-.173-.323,1.049,1.049,0,0,1-.047-.354.955.955,0,0,1,.085-.355.9.9,0,0,1,.2-.285,1.045,1.045,0,0,1,.271-.188,1.21,1.21,0,0,1,.3-.1,1.448,1.448,0,0,1,.286-.031h.091a1.8,1.8,0,0,1,.749.2,1.837,1.837,0,0,1,.578.466l.021.024-.021.031a.63.63,0,0,1-.172.161.355.355,0,0,1-.191.055.53.53,0,0,1-.208-.043c-.067-.03-.139-.058-.216-.089-.1-.042-.188-.077-.271-.1a.852.852,0,0,0-.258-.04.393.393,0,0,0-.254.071.287.287,0,0,0-.1.175.267.267,0,0,0,.094.242,1.132,1.132,0,0,0,.314.179c.158.067.328.142.508.222a1.947,1.947,0,0,1,.477.292,1.087,1.087,0,0,1,.314.414.914.914,0,0,1,.024.59,1.087,1.087,0,0,1-.132.287.944.944,0,0,1-.258.272,1.486,1.486,0,0,1-.4.2,1.661,1.661,0,0,1-.551.082.527.527,0,0,1-.1-.009,1.8,1.8,0,0,1-.728-.192,1.761,1.761,0,0,1-.6-.47l-.022-.023.022-.029a.426.426,0,0,1,.086-.1c.03-.027.058-.051.084-.07a.4.4,0,0,1,.186-.047.548.548,0,0,1,.206.041c.065.029.141.059.215.089a1.256,1.256,0,0,0,.243.094,1.779,1.779,0,0,0,.3.053.592.592,0,0,0,.4-.1A.377.377,0,0,0,133.358,32.194Z" fill="#be1e2d"/>
      </g>
      <g id="Group_2" data-name="Group 2">
        <path id="Path_14" data-name="Path 14" d="M91.993.756a12.413,12.413,0,1,0,12.413,12.413A12.414,12.414,0,0,0,91.993.756Zm0,18.693a6.278,6.278,0,1,1,6.278-6.28A6.28,6.28,0,0,1,91.993,19.449Z" fill="#be1e2d"/>
      </g>
      <g id="Group_3" data-name="Group 3">
        <path id="Path_15" data-name="Path 15" d="M87.994,14.256,86.241,13.4l-.313.31.845.977" fill="#be1e2d"/>
      </g>
      <g id="Group_4" data-name="Group 4">
        <path id="Path_16" data-name="Path 16" d="M96.762,11.569s1.239-.217,1.189.374c0,0-.037.4-.844.807,0,0-7.388,2.442-7.555,2.453a8.546,8.546,0,0,1-2.658-.32l3.578-1.229-1.734-2.076.418-.444,4.075,1.605Z" fill="#be1e2d"/>
      </g>
      <g id="Group_5" data-name="Group 5">
        <path id="Path_17" data-name="Path 17" d="M4.755,1.892H11.5a18.032,18.032,0,0,1,4.658.563,7.14,7.14,0,0,1,3.381,1.908A4.9,4.9,0,0,1,20.813,7.9a5.056,5.056,0,0,1-3.121,4.8v.079a6.024,6.024,0,0,1,2.748,2.15,5.989,5.989,0,0,1,.793,1.6,6.485,6.485,0,0,1,.274,1.907,5.682,5.682,0,0,1-2.133,4.625q-2.152,1.761-6.5,1.764H4.755Zm5.9,4.493v4.641h1.488a2.983,2.983,0,0,0,2.07-.631,2.175,2.175,0,0,0,.695-1.746A1.889,1.889,0,0,0,14.035,6.9a4.1,4.1,0,0,0-2.1-.517H10.657Zm0,9.154v4.786h1.568q3.381,0,3.38-2.346a2.018,2.018,0,0,0-.9-1.957,5.442,5.442,0,0,0-2.556-.483H10.657Z" fill="#be1e2d"/>
      </g>
      <g id="Group_6" data-name="Group 6">
        <path id="Path_18" data-name="Path 18" d="M27.12,24.206a9.14,9.14,0,0,1-3.494-3.187,8.578,8.578,0,0,1-.551-8.084A8.8,8.8,0,0,1,25.162,10.1a9.564,9.564,0,0,1,3.057-1.86,10.259,10.259,0,0,1,7.166,0,9.214,9.214,0,0,1,3.056,1.845,8.782,8.782,0,0,1,2.085,2.847,8.628,8.628,0,0,1,.019,7.048,8.874,8.874,0,0,1-2.1,2.862,9.634,9.634,0,0,1-3.056,1.86,10,10,0,0,1-8.265-.5Zm1.65-4.769a4.317,4.317,0,0,0,6.064,0,3.99,3.99,0,0,0,1.293-2.977,3.833,3.833,0,0,0-.6-2.084,4.421,4.421,0,0,0-1.6-1.522,4.281,4.281,0,0,0-4.255,0,4.435,4.435,0,0,0-1.6,1.522,3.842,3.842,0,0,0-.6,2.084A4,4,0,0,0,28.77,19.437Z" fill="#be1e2d"/>
      </g>
      <g id="Group_7" data-name="Group 7">
        <path id="Path_19" data-name="Path 19" d="M46.9,24.206A9.137,9.137,0,0,1,43.4,21.019a8.569,8.569,0,0,1-.549-8.084A8.751,8.751,0,0,1,44.94,10.1,9.531,9.531,0,0,1,48,8.243a10.248,10.248,0,0,1,7.162,0,9.143,9.143,0,0,1,3.058,1.845A8.777,8.777,0,0,1,60.3,12.935a8.628,8.628,0,0,1,.015,7.048,8.856,8.856,0,0,1-2.1,2.862,9.555,9.555,0,0,1-3.058,1.86,10,10,0,0,1-8.262-.5Zm1.651-4.769a4.316,4.316,0,0,0,6.063,0A3.991,3.991,0,0,0,55.9,16.46a3.842,3.842,0,0,0-.6-2.084,4.405,4.405,0,0,0-1.6-1.522,4.276,4.276,0,0,0-4.252,0,4.425,4.425,0,0,0-1.6,1.522,3.842,3.842,0,0,0-.6,2.084A4,4,0,0,0,48.548,19.437Z" fill="#be1e2d"/>
      </g>
      <g id="Group_8" data-name="Group 8">
        <path id="Path_20" data-name="Path 20" d="M61.872,24.838V1.907l5.175-.016V14.567h.064l5.354-6.273H78.53l-5.983,7.1,7.033,9.445H73.127l-6.08-8.12v8.12H61.872Z" fill="#be1e2d"/>
      </g>
      <g id="Group_9" data-name="Group 9">
        <path id="Path_21" data-name="Path 21" d="M109.817,12.566H106.4l1.161-4.432h2.251V1.762l5.157.033V8.134H118.4l-1.147,4.432h-2.281v5.481q0,2.2,2.748,2.2a3.466,3.466,0,0,0,1.359-.209v4.989c-.27.043-1.959.064-2.218.064a9.206,9.206,0,0,1-3.91-.591,5.052,5.052,0,0,1-2.347-2.249,8.064,8.064,0,0,1-.79-3.8V12.566Z" fill="#be1e2d"/>
      </g>
      <g id="Group_10" data-name="Group 10">
        <path id="Path_22" data-name="Path 22" d="M128.081,13.214a1.939,1.939,0,0,0-1.014-.292h-.28q-1.9.073-1.9,2.652v9.453h-4.991V15.574q0-6.82,6.9-7.163h.28a8.269,8.269,0,0,1,1.014.093v4.71Z" fill="#be1e2d"/>
      </g>
      <g id="Group_11" data-name="Group 11">
        <path id="Path_23" data-name="Path 23" d="M134.159,5.253a2.95,2.95,0,0,1-1.031,1.031,2.861,2.861,0,0,1-2.87.02,2.957,2.957,0,0,1-1.425-2.51,2.828,2.828,0,0,1,.377-1.446A3.058,3.058,0,0,1,130.258,1.3a2.764,2.764,0,0,1,1.425-.378,2.861,2.861,0,0,1,1.445.378,2.922,2.922,0,0,1,1.031,1.049,2.855,2.855,0,0,1,.378,1.446A2.807,2.807,0,0,1,134.159,5.253Zm.2,3.23V25.057H129.2V8.5Z" fill="#be1e2d"/>
      </g>
      <g id="Group_12" data-name="Group 12">
        <path id="Path_24" data-name="Path 24" d="M135.239,16.4a8.039,8.039,0,0,1,1.311-4.448,9.025,9.025,0,0,1,3.492-3.168,9.854,9.854,0,0,1,4.674-1.165,9.725,9.725,0,0,1,3.591.665,9.265,9.265,0,0,1,3.056,1.858,8.987,8.987,0,0,1,2.1,2.847,8.6,8.6,0,0,1-.017,7.035,8.62,8.62,0,0,1-2.087,2.829,9.143,9.143,0,0,1-3.056,1.86,10.482,10.482,0,0,1-7.164,0l-.373-.162-.37-.161v8.479l-5.16-.013V16.4Zm5.16.113a3.711,3.711,0,0,0,.6,2.071,4.391,4.391,0,0,0,1.6,1.518,4.163,4.163,0,0,0,2.116.566,4.271,4.271,0,0,0,2.136-.566,4.414,4.414,0,0,0,1.6-1.518,3.787,3.787,0,0,0,.6-2.071,4.02,4.02,0,0,0-1.293-2.974,4.308,4.308,0,0,0-6.065,0A3.972,3.972,0,0,0,140.4,16.509Z" fill="#be1e2d"/>
      </g>
      <g id="Group_13" data-name="Group 13">
        <path id="Path_25" data-name="Path 25" d="M154.1,22.278a1.378,1.378,0,0,1,.688.186,1.6,1.6,0,0,1,.509.51,1.217,1.217,0,0,1,.191.68,1.391,1.391,0,0,1-.4,1.018,1.413,1.413,0,0,1-1.687.223,1.386,1.386,0,0,1-.512-.519,1.516,1.516,0,0,1-.183-.723,1.247,1.247,0,0,1,.193-.688,1.339,1.339,0,0,1,.517-.5A1.369,1.369,0,0,1,154.1,22.278Z" fill="#be1e2d"/>
        <path id="Path_26" data-name="Path 26" d="M157.233,16.044a1.226,1.226,0,0,1-.642-.17,1.315,1.315,0,0,1-.462-.469,1.343,1.343,0,0,1-.176-.657,1.225,1.225,0,0,1,.168-.646,1.364,1.364,0,0,1,.47-.47,1.212,1.212,0,0,1,.642-.17,1.226,1.226,0,0,1,.646.17,1.336,1.336,0,0,1,.463.47,1.217,1.217,0,0,1,.17.646,1.239,1.239,0,0,1-.17.657,1.319,1.319,0,0,1-.463.461A1.236,1.236,0,0,1,157.233,16.044Zm1.272.94v7.9h-2.46V16.99Z" fill="#be1e2d"/>
        <path id="Path_27" data-name="Path 27" d="M162.7,18.9c-.624.024-.939.462-.939,1.309v4.667H159.29V20.2q0-3.361,3.408-3.536h.137q3.414.174,3.41,3.536v4.667h-2.468V20.2q0-1.271-.942-1.309Z" fill="#be1e2d"/>
      </g>
    </g>
    <g id="Ellipse_1" data-name="Ellipse 1" transform="translate(1045 470)" fill="#fff" stroke="#be1e2d" stroke-width="0.5">
      <circle cx="3.5" cy="3.5" r="3.5" stroke="none"/>
      <circle cx="3.5" cy="3.5" r="3.25" fill="none"/>
    </g>
    <text id="R" transform="translate(1047 475)" fill="#be1e2d" font-size="4" font-family="KozGoPr6N-Medium, Kozuka Gothic Pr6N" font-weight="500"><tspan x="0" y="0">R</tspan></text>
  </g>
</svg>
