<?xml version="1.0" encoding="utf-8"?>
<!-- Generator: Adobe Illustrator 17.0.0, SVG Export Plug-In . SVG Version: 6.00 Build 0)  -->
<!DOCTYPE svg PUBLIC "-//W3C//DTD SVG 1.1//EN" "http://www.w3.org/Graphics/SVG/1.1/DTD/svg11.dtd">
<svg version="1.1" id="Layer_1" xmlns="http://www.w3.org/2000/svg" xmlns:xlink="http://www.w3.org/1999/xlink" x="0px" y="0px"
	 width="120px" height="120px" viewBox="-57.638 0 120 120" enable-background="new -57.638 0 120 120" xml:space="preserve">
<rect x="-57.638" fill="#222222" width="120" height="120"/>
<g>
	<path fill="#FFFFFF" d="M-21.054,76.189l-0.718-1.545h-2.727l-0.718,1.545h-0.474l2.366-4.961h0.413l2.341,4.961H-21.054z
		 M-22.983,72.036c-0.071-0.155-0.098-0.263-0.144-0.376h-0.017c-0.036,0.107-0.09,0.249-0.144,0.368l-1.057,2.303h2.42
		L-22.983,72.036z"/>
	<path fill="#FFFFFF" d="M-10.731,76.187l-0.835-1.453c-0.305-0.539-0.593-0.758-1.167-0.758h-0.779v2.211h-0.432v-4.959h1.741
		c1.201,0,1.785,0.58,1.785,1.29c0,0.785-0.645,1.24-1.48,1.359v0.015c0.261,0.084,0.476,0.29,0.727,0.716l0.933,1.579
		C-10.238,76.187-10.731,76.187-10.731,76.187z M-12.338,71.539h-1.175v2.126h1.084c0.915,0,1.56-0.39,1.56-1.113
		C-10.868,71.921-11.395,71.539-12.338,71.539"/>
	<path fill="#FFFFFF" d="M0.686,76.189l-0.718-1.545h-2.727l-0.718,1.545h-0.474l2.366-4.961h0.413l2.341,4.961H0.686z
		 M-1.243,72.036c-0.071-0.155-0.098-0.263-0.144-0.376h-0.017c-0.036,0.107-0.09,0.249-0.144,0.368l-1.057,2.303h2.42
		L-1.243,72.036z"/>
	<path fill="#FFFFFF" d="M9.483,76.187H7.796v-4.959h1.65c0.986,0,1.614,0.453,1.614,1.148c0,0.645-0.493,1.048-1.102,1.198v0.013
		c0.796,0.058,1.407,0.474,1.407,1.184C11.366,75.55,10.702,76.187,9.483,76.187 M9.276,71.539H8.228v1.921h0.879
		c0.887,0,1.507-0.376,1.507-1.029C10.613,71.865,10.147,71.539,9.276,71.539 M9.151,73.771H8.228v2.105h1.165
		c1.077,0,1.526-0.455,1.526-1.079C10.918,74.047,10.147,73.771,9.151,73.771"/>
	<rect x="18.236" y="71.228" fill="#FFFFFF" width="0.43" height="4.959"/>
	<path fill="#FFFFFF" d="M29.931,76.189l-0.718-1.545h-2.727l-0.718,1.545h-0.474l2.366-4.961h0.413l2.341,4.961H29.931z
		 M28.003,72.036c-0.071-0.155-0.098-0.263-0.144-0.376h-0.017c-0.036,0.107-0.09,0.249-0.144,0.368l-1.057,2.303h2.42
		L28.003,72.036z"/>
	<path fill="#FFFFFF" d="M41.016,53.929c-0.134-0.127-0.32-0.207-0.509-0.217c-0.059-0.002-0.119-0.002-0.178,0
		c-0.71,0.029-1.407,0.457-1.977,0.942c-0.535,0.51-1.015,1.067-1.483,1.637c-1.453,1.863-2.982,4.251-2.982,4.251L33.8,60.663
		c0.038-0.539,0.601-1.936,0.601-1.936c0.303-0.779,0.658-1.539,1.034-2.286c0.284-0.564,0.578-1.125,0.858-1.691
		c0.104-0.211,0.094-0.451-0.002-0.647c-0.18-0.303-0.501-0.407-0.844-0.409c-0.447,0.01-0.869,0.18-1.219,0.378
		c-0.75,0.388-1.777,1.572-1.777,1.572c-0.95,1.031-1.91,2.272-2.637,3.264c-0.733,1-1.228,1.743-1.228,1.743s1.537-3.992,2.8-5.729
		c0.05-0.069,0.04-0.165-0.021-0.225c-0.551-0.535-1.04-0.823-1.649-0.981c-0.084-0.021-0.173,0.017-0.213,0.096
		c-1.76,3.322-2.625,6.665-2.9,7.867c-0.077,0.338-0.036,0.691,0.119,1.004c0.144,0.292,0.363,0.637,0.662,0.867
		c0.084,0.065,0.205,0.052,0.274-0.031c0.324-0.39,0.935-1.499,1.756-2.677c1.459-2.063,3.95-5.337,4.744-5.374
		c0,0-2.124,3.466-2.359,6.467c-0.006,0.077-0.019,0.434,0.038,0.76c0.019,0.094,0.075,0.305,0.202,0.503
		c0.054,0.081,0.123,0.171,0.209,0.253c0.04,0.036,0.081,0.075,0.125,0.106c0.186,0.136,0.447,0.094,0.582-0.092
		c1.422-1.936,4.896-7.915,6.068-8.012c0,0-0.171,0.307-0.418,0.8c-0.683,1.351-1.998,4.147-1.988,5.878
		c0.004,0.693,0.439,1.182,1.034,1.403c0.242,0.081,0.633,0.15,1.09-0.015c0.117-0.042,0.23-0.104,0.338-0.167
		c0.113-0.063,0.223-0.134,0.33-0.211c0.056-0.038,0.109-0.079,0.161-0.121c0.033-0.023,0.123-0.084,0.081-0.134
		c-0.015-0.019-0.044-0.019-0.065-0.013c-1.163,0.347-1.24-0.547-1.24-0.547l0.002-0.002c-0.013-0.077-0.021-0.167-0.021-0.276
		c0.019-1.752,2.163-5.589,2.81-7.335C41.248,54.44,41.241,54.144,41.016,53.929"/>
	<path fill="#FFFFFF" d="M24.268,59.376c-0.063,0.178-0.332,0.881-0.808,1.626C23.805,60.502,24.072,59.953,24.268,59.376"/>
	<path fill="#FFFFFF" d="M25.066,55.088c-0.115,0-0.236,0.019-0.353,0.019c0,0-0.476-0.524-1.092-0.854
		c-1.441-0.568-2.913,0.952-3.136,1.194c-1.28,1.43-2.144,3.424-2.144,5.13c0,0.593,0.092,1.199,0.349,1.735
		c0.249,0.522,0.658,0.946,1.178,1.178c0,0,0.088,0.048,0.253,0.092c1.228,0.344,2.6-0.443,3.481-1.236
		c0.543-0.489,1.021-1.061,1.412-1.677c0.033-0.05,0.063-0.1,0.09-0.15c0.641-1.067,0.985-2.305,0.985-3.56
		C26.091,55.687,25.763,55.088,25.066,55.088 M24.679,56.936c-0.012,0.81-0.14,1.626-0.395,2.395c0,0-0.006,0.015-0.015,0.044
		c-0.196,0.576-0.464,1.127-0.808,1.626c-0.32,0.503-0.735,1.023-1.244,1.412c0.01,0.019-0.28,0.202-0.311,0.221
		c-0.09,0.056-0.184,0.109-0.28,0.155c-0.132,0.063-0.271,0.119-0.415,0.152c-0.159,0.038-0.336,0.056-0.493-0.002
		c-0.18-0.065-0.292-0.228-0.361-0.401c-0.117-0.305-0.175-0.639-0.175-0.965c0-1.054,0.679-2.823,1.57-4.036
		c0.637-0.86,1.545-1.714,2.673-2.053c0.177,0.282,0.253,0.662,0.253,1.334C24.679,56.858,24.679,56.896,24.679,56.936"/>
	<path fill="#FFFFFF" d="M24.283,59.331L24.283,59.331c-0.006,0.015-0.01,0.029-0.015,0.044
		C24.278,59.347,24.283,59.331,24.283,59.331"/>
	<polygon fill="#FFFFFF" points="21.161,62.951 21.17,62.947 21.161,62.949 	"/>
	<path fill="#FFFFFF" d="M15.979,53.737c-3.418,0-6.047,3.773-5.882,6.926c0.05,0.965,0.397,2.034,1.244,2.589
		c1.729,1.134,3.999-0.505,5.174-1.733c0.059-0.061,0.117-0.125,0.173-0.188c0.013-0.117-0.061-0.315-0.15-0.399
		c-0.088-0.083-1.153,0.716-1.278,0.8c-0.654,0.439-1.568,1.05-2.334,0.806c-1.104-0.349-0.914-1.735-0.633-2.685
		c0.405-1.378,1.19-2.712,2.213-3.775c0.395-0.411,0.85-0.781,1.359-1.017c0.188-0.088,0.447-0.186,0.704-0.236
		c0.004,0,0.01-0.002,0.015-0.002c0.015-0.002,0.036-0.006,0.061-0.01c0.05-0.006,0.096-0.01,0.142-0.012
		c0.09-0.006,0.198-0.004,0.307,0.01c0.628,0.111,0.217,0.973,0.063,1.257c-0.029,0.056-0.017,0.125,0.031,0.165
		c0.322,0.282,0.658,0.34,0.821,0.349c0.059,0.004,0.115-0.031,0.134-0.088c0.088-0.249,0.152-0.512,0.18-0.775
		C18.459,54.447,17.315,53.737,15.979,53.737"/>
	<path fill="#FFFFFF" d="M10.316,54.125c-0.132-0.2-0.301-0.309-0.491-0.359c-0.449-0.117-1.004,0.109-1.401,0.336
		c-0.752,0.388-1.779,1.572-1.779,1.572c-0.313,0.342-1.096,1.512-1.47,1.994c-0.012,0.015-0.036,0.002-0.029-0.017
		c0.624-1.459,1.424-2.723,1.424-2.723c0.05-0.069,0.04-0.163-0.021-0.223C6,54.167,5.508,53.881,4.902,53.724
		c-0.086-0.021-0.175,0.017-0.217,0.096c-1.758,3.32-2.623,6.663-2.898,7.865c-0.077,0.34-0.036,0.693,0.119,1.004
		c0.15,0.303,0.38,0.666,0.7,0.896c0.086,0.063,0.211,0.025,0.242-0.079c0.115-0.367,0.251-0.762,0.403-1.175
		c0.036-0.092,0.885-2.128,2.403-4.199c1.117-1.405,2.219-2.612,2.698-2.635c0,0,0.51-0.002,0.338,0.676
		c-0.042,0.159,0.029,0.328,0.175,0.405c0.19,0.1,0.438,0.217,0.597,0.238c0.04,0.006,0.081-0.015,0.102-0.052
		c0,0,0.545-1.015,0.718-1.357C10.469,55.01,10.575,54.516,10.316,54.125"/>
	<path fill="#FFFFFF" d="M-1.268,54.048c-0.01-0.008-0.077-0.065-0.198-0.127C-1.399,53.964-1.333,54.006-1.268,54.048"/>
	<path fill="#FFFFFF" d="M2.255,54.474c-0.342-0.378-0.938-0.58-1.345-0.677c-0.052-0.013-0.106-0.012-0.155,0.002
		c-0.033,0.008-0.065,0.021-0.094,0.04c-0.094,0.067-0.56,1.013-0.631,1.184c-0.04,0.096-0.065,0.155-0.065,0.155
		s-0.51,0.969-1.04,1.984c-0.461,0.879-0.933,1.789-1.121,2.163c-0.827,1.652-1.466,2.608-2.04,3.046
		c-0.013,0.012-0.027,0.021-0.04,0.031c-0.015,0.01-0.031,0.021-0.046,0.031c-0.004,0.004-0.008,0.008-0.013,0.01
		c-0.083,0.056-0.167,0.102-0.248,0.136c-0.361,0.14-0.51-0.079-0.568-0.226c-0.013-0.035-0.025-0.071-0.035-0.113
		c-0.464-2.219,2.529-6.934,4.852-7.3c-0.518-0.631-0.931-0.889-0.931-0.889s0,0-0.002,0c-0.063-0.044-0.129-0.09-0.198-0.127
		c-1.368-0.72-2.883,1.017-3.618,1.936c-0.572,0.718-1.155,1.689-1.48,2.499c-0.359,0.898-0.53,1.846-0.474,2.79
		c0.013,0.249,0.042,0.509,0.102,0.764l-0.017-0.042c0.017,0.063,0.04,0.146,0.071,0.24c0.05,0.157,0.111,0.311,0.194,0.457
		c0.002,0.004,0.004,0.01,0.006,0.013c0.004,0.004,0.006,0.008,0.008,0.013c0.015,0.027,0.031,0.052,0.046,0.079l-0.006-0.013
		c0.05,0.077,0.104,0.154,0.165,0.225c0.159,0.19,0.353,0.361,0.572,0.493c0.401,0.246,0.925,0.326,1.332,0.154
		c-0.044,0.017-0.088,0.035-0.132,0.05c0.175-0.046,0.355-0.132,0.539-0.273c0,0,0.002-0.002,0.004-0.002
		c0.058-0.04,0.115-0.081,0.169-0.121c0.645-0.489,1.293-1.324,1.812-2.357c-0.109,0.474-0.184,0.854-0.232,1.117
		c-0.056,0.305,0.012,0.62,0.19,0.894c0.171,0.265,0.426,0.578,0.76,0.775c0.09,0.054,0.211,0.021,0.238-0.067h0.002
		c0,0,1.157-4.675,3.451-8.834c0.012-0.027,0.019-0.05,0.025-0.071C2.29,54.528,2.255,54.474,2.255,54.474"/>
	<polyline fill="#FFFFFF" points="-1.268,54.05 -1.268,54.05 -1.27,54.048 -1.268,54.05 	"/>
	<path fill="#FFFFFF" d="M-2.648,44.45c-0.244-0.159-0.555-0.351-0.745-0.434c-0.171-0.075-0.334-0.138-0.472-0.186
		c-0.132-0.048-0.28-0.006-0.367,0.102l-1.487,1.846l-10.166,13.215c1.693-4.711,3.581-9.45,5.635-14.213
		c0.038-0.123-0.008-0.257-0.117-0.326c-0.234-0.148-0.47-0.269-0.687-0.368c-0.15-0.069-0.292-0.129-0.416-0.177
		c-0.138-0.054-0.297,0.002-0.372,0.131c-0.319,0.549-0.866,1.47-1.601,2.608c-3.88,6.016-7.345,9.575-9.59,11.509
		c-0.825,0.697-2.138,1.714-3.671,2.583c-2.057,1.167-3.963,1.777-5.654,1.81c-0.303,0.006-0.599-0.008-0.889-0.04
		c0.046-0.065,0.088-0.138,0.119-0.215c0.288-0.699-0.213-1.566-1.117-1.94c-0.904-0.372-1.871-0.107-2.159,0.591
		c-0.173,0.418-0.048,0.887,0.211,1.242c0.516,0.71,1.499,0.921,2.313,1.057c0.451,0.077,0.908,0.111,1.365,0.106
		c0.027,0,0.054,0,0.083,0c0.411-0.008,0.841-0.048,1.274-0.117c1.533-0.242,3.18-0.864,4.888-1.839
		c2.282-1.303,4.032-2.894,4.71-3.57l0.292-0.271c1.094-0.983,2.098-2.071,3.053-3.159c0.967-1.104,1.894-2.222,2.739-3.395
		c0.51-0.706,1.019-1.411,1.51-2.119l0.315-0.466c-0.585,1.136-3.439,7.728-4.232,9.92c-0.353,0.971-0.706,1.927-0.827,2.957
		c-0.008,0.071-0.04,0.489,0.017,0.894c0.013,0.073,0.063,0.284,0.184,0.472c0,0,0.079,0.129,0.196,0.232
		c0.035,0.031,0.073,0.058,0.113,0.081c0.102,0.052,0.219,0.063,0.332-0.035c0.023-0.019,0.044-0.044,0.067-0.073
		c0.382-0.484,1.514-1.977,1.533-2.004l7.799-10.413c0,0,2.174-2.712,2.169-2.7l0.894-1.15c-0.131-0.367-5.567,10.526-6.608,14.397
		c-0.046,0.169-0.18,0.576-0.184,0.979c0.002,0.152,0.017,0.296,0.044,0.422c0.077,0.345,0.249,0.587,0.58,0.777
		c0.004,0.002,0.37,0.257,0.856,0.407c2.255-6.775,5.418-13.365,8.181-18.727C-2.464,44.711-2.514,44.539-2.648,44.45"/>
	<path fill="#FFFFFF" d="M-18.416,59.763L-18.416,59.763z"/>
</g>
</svg>
